<svg width="7" height="15" viewBox="0 0 7 15" fill="none" xmlns="http://www.w3.org/2000/svg">
<path d="M1.74999 7.07147C1.49999 7.07147 1.2857 7.07147 1.0357 7.10719C0.928559 7.10719 0.749988 7.07147 0.642845 7.10719C0.607131 6.8929 0.642845 6.60719 0.678559 6.35719C0.678559 6.10719 0.714274 5.78576 0.678559 5.50004C0.892845 5.53576 1.14284 5.53576 1.35713 5.53576C1.5357 5.53576 1.71427 5.50004 1.89284 5.42862C1.92856 5.42862 1.99999 5.3929 2.0357 5.35719C2.10713 5.32147 2.07142 5.25004 2.0357 5.21433C1.96427 4.1429 1.99999 2.53576 2.85713 1.82147C3.74999 1.10719 5.35713 1.28576 6.46427 1.42862C6.17856 1.85719 6.2857 2.46433 6.17856 2.96433C5.67856 2.75004 4.85713 2.82147 4.49999 3.17862C3.99999 3.71433 4.24999 4.53576 4.2857 5.17862C4.2857 5.28576 4.42856 5.35719 4.49999 5.32147C4.82141 5.42862 5.17856 5.42862 5.5357 5.42862C5.7857 5.42862 6.0357 5.42862 6.2857 5.3929C6.21427 5.60719 6.17856 5.85719 6.17856 6.10719C6.14284 6.42862 6.14284 6.75004 6.17856 7.07147C6.17856 7.07147 6.17856 7.07147 6.14284 7.07147C5.5357 7.25004 4.92856 7.03576 4.35713 7.10719C4.2857 7.10719 4.24999 7.21433 4.2857 7.25004C3.89284 8.03576 4.07142 9.32147 4.10713 10.1429C4.14284 11.3215 4.21427 12.6072 4.10713 13.7858C3.74999 13.75 3.35713 13.7858 2.96427 13.7858C2.60713 13.7143 2.2857 13.7143 1.99999 13.8215C1.99999 12.6786 1.99999 11.5358 2.0357 10.3929C2.07142 9.32147 2.17856 8.21433 2.0357 7.1429C2.0357 7.07147 1.92856 7.07147 1.89284 7.10719C1.85713 7.07147 1.82142 7.07147 1.74999 7.07147Z" fill="#171717"/>
<path d="M1.85709 5.42862C1.67852 5.50005 1.49995 5.50005 1.32138 5.50005C1.10709 5.53577 0.857091 5.50005 0.642805 5.46434C0.678519 5.75005 0.678519 6.03577 0.642805 6.32148C0.642805 6.57148 0.571377 6.82148 0.607091 7.07148C0.749948 7.07148 0.892805 7.07148 0.999948 7.07148C1.24995 7.07148 1.46423 7.03577 1.71423 7.03577C1.78566 7.03577 1.82138 7.07148 1.82138 7.10719C1.85709 7.07148 1.96423 7.07148 1.96423 7.14291C2.1428 8.21434 1.99995 9.32148 1.96423 10.3929C1.99995 11.5358 1.96423 12.6786 1.99995 13.8215C2.28566 13.7143 2.60709 13.7143 2.92852 13.7501C3.28566 13.7858 3.67852 13.7143 4.07138 13.7501C4.17852 12.5715 4.07138 11.2858 4.07138 10.1072C4.03566 9.28577 3.85709 8.00005 4.24995 7.21434C4.21423 7.14291 4.24995 7.07148 4.32138 7.07148C4.92852 7.00005 5.53566 7.21434 6.10709 7.03577C6.10709 7.03577 6.10709 7.03577 6.1428 7.03577C6.1428 6.71434 6.1428 6.39291 6.1428 6.07148C6.1428 5.82148 6.17852 5.60719 6.24995 5.35719C5.99995 5.39291 5.74995 5.39291 5.49995 5.39291C5.17852 5.39291 4.78566 5.39291 4.46423 5.28577C4.3928 5.32148 4.24995 5.28577 4.24995 5.14291C4.21423 4.50005 3.99995 3.67862 4.46423 3.14291C4.82138 2.75005 5.6428 2.67862 6.1428 2.92862C6.24995 2.42862 6.17852 1.85719 6.42852 1.39291C5.32138 1.25005 3.71423 1.03577 2.82138 1.78577C1.96423 2.50005 1.92852 4.10719 1.99995 5.17862C2.03566 5.21434 2.03566 5.28577 1.99995 5.32148C1.96423 5.39291 1.92852 5.42862 1.85709 5.42862ZM1.78566 13.8572C1.74995 12.7143 1.67852 11.5715 1.71423 10.4286C1.74995 9.39291 1.67852 8.3572 1.82138 7.32148C1.78566 7.32148 1.78566 7.3572 1.74995 7.3572C1.46423 7.39291 1.21423 7.39291 0.928519 7.39291C0.821377 7.39291 0.642805 7.35719 0.571377 7.28577C0.499948 7.32148 0.428519 7.28577 0.392805 7.21434C0.249948 7.00005 0.321377 6.67862 0.357091 6.42862C0.392805 6.10719 0.321377 5.71434 0.464234 5.42862C0.464234 5.35719 0.499948 5.25005 0.607091 5.28577C0.821377 5.32148 1.07138 5.32148 1.28566 5.28577C1.42852 5.28577 1.57138 5.25005 1.67852 5.21434C1.53566 4.60719 1.67852 3.89291 1.74995 3.35719C1.85709 2.67862 2.03566 2.03577 2.60709 1.57148C3.10709 1.17862 3.71423 1.00005 4.35709 1.00005C5.07138 0.964337 5.96423 0.82148 6.60709 1.21434C6.6428 1.21434 6.6428 1.25005 6.6428 1.25005C6.67852 1.25005 6.71423 1.28577 6.71423 1.35719C6.6428 1.67862 6.60709 2.03577 6.57137 2.35719C6.57137 2.60719 6.57137 2.85719 6.46423 3.10719C6.42852 3.14291 6.42852 3.17862 6.35709 3.21434C6.35709 3.25005 6.32137 3.25005 6.32137 3.25005C5.74995 3.39291 4.99995 2.89291 4.60709 3.57148C4.32138 4.03577 4.49995 4.71434 4.53566 5.21434C4.8928 5.14291 5.24995 5.17862 5.60709 5.17862C5.85709 5.17862 6.21423 5.10719 6.42852 5.28577C6.42852 5.32148 6.46423 5.32148 6.42852 5.35719C6.67852 5.85719 6.42852 6.64291 6.3928 7.17862C6.3928 7.25005 6.35709 7.28577 6.28566 7.28577C6.28566 7.32148 6.24995 7.35719 6.17852 7.39291C5.60709 7.57148 4.96423 7.46434 4.3928 7.3572C4.46423 8.42862 4.35709 9.57148 4.35709 10.6429C4.35709 11.6786 4.53566 12.8215 4.35709 13.8572C4.35709 13.8929 4.32138 13.8929 4.32138 13.9286C4.32138 13.9643 4.28566 14.0001 4.24995 14.0001C3.82138 14.0715 3.32138 14.0715 2.92852 14.0358C2.60709 14.0001 2.21423 14.0715 1.92852 13.9286C1.85709 13.9643 1.78566 13.9286 1.78566 13.8572Z" fill="#171717"/>
</svg>
