<svg width="180" height="25" viewBox="0 0 180 25" fill="none" xmlns="http://www.w3.org/2000/svg">
<path d="M12.0398 14.2029H6.70957V19.6523H3.42291V5.97775H12.5677V8.53215H6.70957V11.6826H12.0227V14.2029H12.0398Z" fill="white"/>
<path d="M25.527 13.096C25.527 14.4243 25.2715 15.6164 24.7777 16.6381C24.2838 17.6599 23.5856 18.4603 22.6661 19.0052C21.7465 19.5672 20.7247 19.8396 19.5497 19.8396C18.3747 19.8396 17.3529 19.5672 16.4503 19.0393C15.5478 18.5113 14.8496 17.745 14.3387 16.7403C13.8278 15.7526 13.5724 14.5946 13.5383 13.3174V12.5511C13.5383 11.2058 13.7767 10.0307 14.2706 9.00898C14.7644 7.98722 15.4626 7.18684 16.3822 6.6419C17.3018 6.07993 18.3406 5.80746 19.5156 5.80746C20.6736 5.80746 21.7124 6.07993 22.615 6.6419C23.5175 7.18684 24.2327 7.97019 24.7266 8.99195C25.2375 10.0137 25.4929 11.1717 25.4929 12.5V13.096H25.527ZM22.1722 12.517C22.1722 11.1547 21.9508 10.1329 21.491 9.41768C21.0312 8.71948 20.3841 8.36186 19.5497 8.36186C17.8978 8.36186 17.0293 9.605 16.9272 12.0743L16.9101 13.079C16.9101 14.4243 17.1315 15.4461 17.5743 16.1783C18.017 16.8936 18.6812 17.2512 19.5497 17.2512C20.3841 17.2512 21.0312 16.8936 21.474 16.1954C21.9168 15.4801 22.1552 14.4754 22.1552 13.1471V12.517H22.1722Z" fill="white"/>
<path d="M38.8099 13.096C38.8099 14.4243 38.5544 15.6164 38.0606 16.6381C37.5667 17.6599 36.8685 18.4603 35.9489 19.0052C35.0294 19.5672 34.0076 19.8396 32.8326 19.8396C31.6576 19.8396 30.6358 19.5672 29.7332 19.0393C28.8307 18.5113 28.1325 17.745 27.6216 16.7403C27.1107 15.7526 26.8553 14.5946 26.8212 13.3174V12.5511C26.8212 11.2058 27.0596 10.0307 27.5535 9.00898C28.0473 7.98722 28.7455 7.18684 29.6651 6.6419C30.5847 6.07993 31.6235 5.80746 32.7985 5.80746C33.9565 5.80746 34.9953 6.07993 35.8979 6.6419C36.8004 7.18684 37.5156 7.97019 38.0095 8.99195C38.5204 10.0137 38.7758 11.1717 38.7758 12.5V13.096H38.8099ZM35.4551 12.517C35.4551 11.1547 35.2337 10.1329 34.7739 9.41768C34.3141 8.71948 33.667 8.36186 32.8326 8.36186C31.1807 8.36186 30.3122 9.605 30.2101 12.0743L30.193 13.079C30.193 14.4243 30.4144 15.4461 30.8572 16.1783C31.2999 16.8936 31.9641 17.2512 32.8326 17.2512C33.667 17.2512 34.3141 16.8936 34.7569 16.1954C35.1997 15.4801 35.4381 14.4754 35.4381 13.1471V12.517H35.4551Z" fill="white"/>
<path d="M50.8155 8.51512H46.7115V19.6523H43.4248V8.51512H39.3889V5.96072H50.8155V8.51512Z" fill="white"/>
<path d="M52.212 19.6523V5.97775H57.1334C58.8874 5.97775 60.2328 6.30131 61.1523 6.94842C62.0719 7.59554 62.5317 8.53215 62.5317 9.75826C62.5317 10.4735 62.3614 11.0695 62.0379 11.5634C61.7143 12.0572 61.2375 12.4319 60.6074 12.6703C61.3226 12.8576 61.8676 13.2152 62.2592 13.7261C62.6339 14.237 62.8382 14.8671 62.8382 15.5993C62.8382 16.9446 62.4125 17.9494 61.561 18.6135C60.7096 19.2947 59.4494 19.6353 57.7805 19.6353H52.212V19.6523ZM55.5157 11.6826H57.2356C57.9508 11.6826 58.4617 11.5463 58.7682 11.2909C59.0748 11.0355 59.228 10.6608 59.228 10.1499C59.228 9.57094 59.0577 9.16224 58.7342 8.9068C58.3936 8.65136 57.8657 8.53215 57.1334 8.53215H55.5157V11.6826ZM55.5157 13.8283V17.1149H57.6784C58.2744 17.1149 58.7342 16.9787 59.0577 16.7062C59.3813 16.4338 59.5346 16.0421 59.5346 15.5482C59.5346 14.4073 58.9726 13.8283 57.8316 13.8283H55.5157Z" fill="white"/>
<path d="M71.9829 17.0979H67.4702L66.6868 19.6523H63.1617L68.1854 5.97775H71.2847L76.3424 19.6523H72.8003L71.9829 17.0979ZM68.2535 14.5435H71.1996L69.718 9.79232L68.2535 14.5435Z" fill="white"/>
<path d="M80.6169 17.1149H86.3558V19.6523H77.3132V5.97775H80.6169V17.1149Z" fill="white"/>
<path d="M91.0388 17.1149H96.7777V19.6523H87.7351V5.97775H91.0388V17.1149Z" fill="white"/>
<path d="M109.703 16.008C109.703 15.5312 109.533 15.1566 109.192 14.8841C108.851 14.6116 108.255 14.3392 107.387 14.0497C106.535 13.7602 105.82 13.4877 105.275 13.2152C103.504 12.3467 102.619 11.1547 102.619 9.62203C102.619 8.85571 102.84 8.19157 103.283 7.61257C103.726 7.03358 104.356 6.57379 105.156 6.26726C105.956 5.96073 106.876 5.79044 107.881 5.79044C108.868 5.79044 109.754 5.96073 110.52 6.31835C111.304 6.67596 111.9 7.16981 112.342 7.81693C112.768 8.46404 112.99 9.21333 112.99 10.0307H109.703C109.703 9.46877 109.533 9.04304 109.192 8.73651C108.851 8.42998 108.392 8.27672 107.813 8.27672C107.217 8.27672 106.757 8.41295 106.416 8.66839C106.076 8.92383 105.905 9.26442 105.905 9.65609C105.905 10.0137 106.093 10.3202 106.467 10.6097C106.842 10.8992 107.506 11.1887 108.443 11.4953C109.396 11.8018 110.163 12.1253 110.776 12.483C112.257 13.3344 112.99 14.5095 112.99 16.008C112.99 17.2001 112.547 18.1367 111.644 18.8349C110.742 19.5161 109.499 19.8567 107.932 19.8567C106.825 19.8567 105.82 19.6523 104.918 19.2606C104.015 18.869 103.334 18.324 102.891 17.6258C102.431 16.9276 102.21 16.1443 102.21 15.2417H105.514C105.514 15.974 105.701 16.5189 106.076 16.8595C106.45 17.2001 107.063 17.3874 107.915 17.3874C108.46 17.3874 108.886 17.2682 109.209 17.0298C109.55 16.7744 109.703 16.4338 109.703 16.008Z" fill="#5FC7AE"/>
<path d="M125.762 15.0203C125.71 15.974 125.455 16.8084 124.995 17.5407C124.535 18.2729 123.871 18.8349 123.02 19.2436C122.168 19.6523 121.198 19.8396 120.108 19.8396C118.303 19.8396 116.889 19.2606 115.868 18.0856C114.829 16.9106 114.318 15.2587 114.318 13.1301V12.4489C114.318 11.1036 114.556 9.92856 115.016 8.92383C115.476 7.9191 116.157 7.13575 117.026 6.59081C117.894 6.04588 118.916 5.77341 120.074 5.77341C121.726 5.77341 123.071 6.21617 124.076 7.08467C125.08 7.95316 125.659 9.16224 125.796 10.6949H122.509C122.492 9.86045 122.271 9.26442 121.879 8.9068C121.487 8.54919 120.891 8.36186 120.074 8.36186C119.256 8.36186 118.643 8.66839 118.269 9.28145C117.894 9.8945 117.69 10.8822 117.673 12.2275V13.1812C117.673 14.6457 117.86 15.6845 118.218 16.3146C118.592 16.9446 119.222 17.2512 120.108 17.2512C120.874 17.2512 121.453 17.0809 121.845 16.7233C122.254 16.3656 122.458 15.8037 122.492 15.0203H125.762Z" fill="#5FC7AE"/>
<path d="M138.755 19.6523H135.468V13.9475H130.615V19.6523H127.311V5.97775H130.615V11.4101H135.468V5.97775H138.755V19.6523Z" fill="#5FC7AE"/>
<path d="M152.429 13.096C152.429 14.4243 152.174 15.6164 151.68 16.6381C151.186 17.6599 150.488 18.4603 149.569 19.0052C148.649 19.5672 147.627 19.8396 146.452 19.8396C145.277 19.8396 144.255 19.5672 143.353 19.0393C142.45 18.5113 141.752 17.745 141.241 16.7403C140.73 15.7526 140.475 14.5946 140.441 13.3174V12.5511C140.441 11.2058 140.679 10.0307 141.173 9.00898C141.667 7.98722 142.365 7.18684 143.285 6.6419C144.204 6.07993 145.243 5.80746 146.418 5.80746C147.576 5.80746 148.615 6.07993 149.517 6.6419C150.42 7.18684 151.135 7.97019 151.629 8.99195C152.14 10.0137 152.395 11.1717 152.395 12.5V13.096H152.429ZM149.075 12.517C149.075 11.1547 148.853 10.1329 148.394 9.41768C147.934 8.71948 147.287 8.36186 146.452 8.36186C144.8 8.36186 143.932 9.605 143.83 12.0743L143.813 13.079C143.813 14.4243 144.034 15.4461 144.477 16.1783C144.92 16.8936 145.584 17.2512 146.452 17.2512C147.287 17.2512 147.934 16.8936 148.377 16.1954C148.819 15.4801 149.058 14.4754 149.058 13.1471V12.517H149.075Z" fill="#5FC7AE"/>
<path d="M165.712 13.096C165.712 14.4243 165.457 15.6164 164.963 16.6381C164.469 17.6599 163.771 18.4603 162.851 19.0052C161.932 19.5672 160.91 19.8396 159.735 19.8396C158.56 19.8396 157.538 19.5672 156.636 19.0393C155.733 18.5113 155.035 17.745 154.524 16.7403C154.013 15.7526 153.758 14.5946 153.724 13.3174V12.5511C153.724 11.2058 153.962 10.0307 154.456 9.00898C154.95 7.98722 155.648 7.18684 156.568 6.6419C157.487 6.07993 158.526 5.80746 159.701 5.80746C160.859 5.80746 161.898 6.07993 162.8 6.6419C163.703 7.18684 164.418 7.97019 164.912 8.99195C165.423 10.0137 165.678 11.1717 165.678 12.5V13.096H165.712ZM162.358 12.517C162.358 11.1547 162.136 10.1329 161.676 9.41768C161.217 8.71948 160.57 8.36186 159.735 8.36186C158.083 8.36186 157.215 9.605 157.113 12.0743L157.096 13.079C157.096 14.4243 157.317 15.4461 157.76 16.1783C158.202 16.8936 158.867 17.2512 159.735 17.2512C160.57 17.2512 161.217 16.8936 161.659 16.1954C162.102 15.4801 162.341 14.4754 162.341 13.1471V12.517H162.358Z" fill="#5FC7AE"/>
<path d="M170.719 17.1149H176.458V19.6523H167.415V5.97775H170.719V17.1149Z" fill="#5FC7AE"/>
</svg>
